<svg xmlns="http://www.w3.org/2000/svg" viewBox="8.2 7 221 221" role="img" aria-label="BuilderFox favicon">
  <title>BuilderFox</title>
  <!-- Helmet-fox mark tuned for 16-32px: same fox-in-profile composition
       (green head, crimson hard hat, cream chest tufts) with small-size
       simplifications - under-brim stripe, crown plume slivers, and cream
       micro-highlights dropped; sage tuft layer flattened to cream; eye
       cutout enlarged; viewBox tightened to the mark. -->
  <path fill="#79A84B" fill-rule="evenodd" d="M24.5 28.6C26.3 28.5 26.4 28.1 28.8 28.4C31.2 28.6 34.7 29.2 38.7 30.2C42.6 31.2 47.9 32.8 52.6 34.3C57.2 35.8 61.4 37.3 66.4 39.3C71.4 41.3 79.3 44.7 82.6 46.5C85.9 48.3 85 48.9 86.2 50.1C85.7 50.5 85.8 49.4 84.7 51.4C83.5 53.5 81 58.6 79.1 62.2L78.1 62.8C72.1 58.7 65.1 53.3 60.2 50.4C55.2 47.5 50.8 46.3 48.5 45.2C46.3 44.1 49.3 44.7 46.7 43.7C44.2 42.7 36.1 40 33.3 39.2C30.5 38.4 31.1 39 30 38.9C29.8 39.5 29.2 38.8 29.5 40.7C29.7 42.5 30.5 47 31.4 50.1C32.4 53.2 34.5 57.7 35.1 59.5C35.7 61.3 35 60.4 34.9 60.8L37 64L36.7 65.3C37.3 66.5 37.8 67.8 38.5 68.9C39.2 70 39.7 69.8 41 72C42.4 74.3 45 79.7 46.6 82.4C48.2 85 49.4 86.4 50.6 87.7C51.9 89.1 52.8 89.6 53.9 90.6C57.5 88.6 62.4 85.6 64.7 84.6C66.9 83.5 66.4 84.5 67.3 84.4L66.3 88.6L70.9 94.9L66.4 97.6C66 97.6 67.8 96.3 65.1 97.5C62.4 98.8 53.4 103.5 50.3 104.9C47.2 106.3 47.8 105.2 46.3 106.1C44.8 106.9 43.7 108.4 41.3 109.8C39 111.3 33.8 113.6 31.9 114.9C30.1 116.2 30.7 116.7 30.1 117.5L28.8 117.6L24.3 121.5L23.3 120.4C23.6 118.5 23.1 118.5 24.3 114.6C25.4 110.7 28.2 102.8 30.1 96.9L31 96.6C33.4 98.4 36.3 101 38.2 102.2C40.1 103.4 40.9 103.3 42.2 103.9L42.9 103C42.9 102.5 43.5 102.7 42.7 101.6C42 100.5 40 98.5 38.5 96.2C37.1 94 35.9 91.8 34 88.2C32.2 84.6 29.6 80 27.4 74.7C25.3 69.4 22.2 60 21.1 56.4C20.1 52.8 21.5 54.6 21.2 53.2C20.9 51.9 19.6 49.6 19.3 48.3C19.1 47 19.5 46.5 19.5 45.6C19.1 45 18.8 45.9 18.4 43.8C17.9 41.7 17.1 35.5 17 33.1C17 30.6 17.7 30.3 18 28.9C20.2 28.8 22.8 28.7 24.5 28.6ZM130.3 100.3C138.5 100.1 149.8 100.4 157 101C164.2 101.5 168 102.7 173.5 103.6L175.3 102.3C176.1 103.4 177.2 104.2 177.7 105.7C178.3 107.1 178.2 109.3 178.8 111C179.3 112.8 179.7 114 181 116C182.3 118 184.6 121.2 186.4 123.1C188.2 125.1 189.4 126.2 191.9 127.8C194.4 129.3 198.2 130.9 201.3 132.4L203.5 136.3L200.3 143.3L201.4 146.9C200.9 147.4 201.6 147.7 200 148.4C198.3 149.1 193.6 150.7 191.5 151.1C189.4 151.5 188.8 150.9 187.4 150.9L186.1 152C183.7 151.7 180.7 151.1 178.9 151.1C177.1 151.1 176.5 151.7 175.3 152L172.2 150.8L170.9 151.4L169.5 150.3C168.8 150.4 168.4 150.8 167.3 150.6C166.2 150.4 164.7 149.5 162.8 149.1C160.9 148.7 157.6 148.7 156.1 148.4C154.6 148.1 155.6 147.6 153.8 147.2C152 146.7 147 146.1 145.3 145.7C143.6 145.2 144.1 144.9 143.5 144.5L142.2 145.1C140.1 144.3 138.9 143.4 135.9 142.7C132.9 142.1 126.4 141.6 124.3 141.2C122.1 140.8 123.7 140.6 122.9 140.4C122.2 140.2 120.7 140 119.8 140C118.9 140.1 118.3 140.5 117.5 140.8L116.2 139.7C115 139.6 114.9 139.5 112.6 139.5C110.3 139.5 104.7 139.5 102.3 139.7C99.9 139.9 99.6 140.4 98.3 140.8L96.5 139.9L91.5 141.5L90.2 140.9C86.5 141.8 82.5 142.6 79 143.6C75.5 144.7 72.3 145.8 69.1 147.2C66 148.6 63.2 150.3 60.2 151.9L58.7 151.4L61.4 149.1C60.5 149.1 61 148.2 58.8 149.1C56.6 150 50.8 152.9 48.1 154.4C45.4 155.8 45.1 156.2 42.7 157.9C40.3 159.7 36.8 162.1 33.7 165C30.7 168 27.5 172.2 24.3 175.8L22.8 175.1C23 171.7 22.6 169.2 23.3 164.8C24 160.4 25.5 153.5 27 148.7C28.5 143.8 30.2 139.7 32.2 135.7C34.3 131.6 35.1 127.7 39.1 124.3C43.2 120.9 49.8 118.2 56.6 115.4C63.4 112.5 71.4 109.6 79.9 107.3C88.4 105.1 99.3 103 107.7 101.9C116.1 100.7 122.1 100.4 130.3 100.3ZM121.1 102.2C118.3 102.2 117.9 102.5 116.9 103.0C115.7 103.4 115.2 104.4 114.5 105.2C117.0 107.3 120.2 108.6 122.2 111.3C124.1 114.0 124.4 119.0 125.8 121.4C127.2 123.6 129.1 124.4 130.6 125.5C132.0 126.5 132.6 127.1 134.3 127.4C136.1 127.9 139.2 127.9 141.2 127.8C143.2 127.6 144.9 127.3 146.5 126.8C147.9 126.2 148.5 124.7 150.1 124.6C151.8 124.2 154.4 125.2 156.5 125.5L157.7 124.6C157.1 123.0 156.9 121.5 155.9 119.9C155.1 118.3 155.1 117.8 152.5 115.3C149.9 112.7 144.2 108.1 140.1 104.4C139.2 104.4 138.6 104.9 137.4 104.6C136.3 104.1 136.0 102.5 133.3 102.2C130.4 101.7 123.8 102.0 121.1 102.2Z"/>
  <path fill="#C9304C" fill-rule="evenodd" d="M80 77C95 57 112 41 130 28.5C137 24 143 20.5 150 18C153.5 20.5 157 24 160 28.5C157 28.7 155.3 29.1 153.5 29.5C161 40.5 169 54 174.5 66.5C175.5 68.8 176 70.5 176 72C150 71.5 112 73.5 80 77ZM64.4 88.2L68.2 82.6C85 78.6 105 75.8 125 74.6C145 73.6 165 74.6 182 78C192 80.2 203 85.5 211.5 91.5C196.8 89.1 179.5 85.6 167.3 84.4C155 83.1 146 83.8 138.1 83.9C130.3 84.1 128 84.4 120.2 85.3C112.5 86.2 99.4 87.2 91.5 88.3C84 89.4 77.5 92 73.6 92.9C70.8 93.5 70.6 93.2 69.8 93.2L64.4 88.2Z"/>
  <path fill="#FAF6EC" fill-rule="evenodd" d="M102.2 137C104.8 136.8 111.8 136.6 114.4 136.8C116.9 137 116.5 137.6 117.5 138.1C118.4 137.8 118.2 137.1 120.2 137.3C122.2 137.6 127.7 139.1 129.6 139.4C131.6 139.7 130.2 138.9 131.9 139.1C133.5 139.4 137.8 140.4 139.5 140.9C141.2 141.5 141.3 141.9 142.2 142.4L143.5 141.8C144.1 142.2 143.6 142.5 145.3 143C147 143.4 152 144.1 153.8 144.5C155.6 145 154.6 145.4 156.1 145.7C157.6 146 160.9 146 162.8 146.4C164.7 146.8 166.2 147.7 167.3 147.9C168.4 148.1 168.8 147.7 169.5 147.6L170.9 148.7L172.2 148.1L175.3 149.3C176.5 149 177.1 148.5 178.9 148.5C180.7 148.5 183.7 149 186.1 149.3L187.4 148.2C188.8 148.3 189.3 148.8 191.5 148.4C193.6 147.9 197.4 146.5 200.4 145.6C201.7 147.9 202.8 150.7 204.3 152.7C205.8 154.7 207.8 155.9 209.5 157.5C205.9 159.1 202.1 161.1 198.6 162.3C195.2 163.5 191.7 164.2 188.8 164.6C185.9 165 183.6 164.8 181.2 164.6C178.7 164.4 177.5 164.4 174 163.2C170.5 161.9 164.7 159.2 160.1 157.2C161.4 158.8 162.5 160.3 164.1 161.9C165.8 163.5 168.2 165 170.2 166.6L168.6 169C162.2 167.2 154.3 164.9 149.3 163.8C144.4 162.6 143.4 162.3 139 161.9C134.6 161.5 127.2 161.3 122.9 161.5C118.6 161.6 116.4 162.1 113.1 162.9C109.7 163.6 105.9 164.8 102.7 166C99.6 167.2 97.1 168.4 94.2 170C91.4 171.7 88.1 173.9 85.5 176C82.9 178.1 80.9 180.5 78.5 182.8L77.6 181.8C77.7 180.9 77.4 180.8 78 179.2C78.5 177.5 79.9 174.4 80.9 172L80.3 171.4C78.3 173.5 76.1 175.4 74.4 177.8C72.6 180.2 71 183.2 69.9 185.9C68.7 188.6 68 190.7 67.6 193.9C67.2 197.2 67.5 201.7 67.5 205.6L66.9 206.1C63.9 203 60.4 199.8 57.9 196.8C55.4 193.8 53.8 191.5 52 188.1C50.1 184.7 48.1 180.6 47 176.5C45.9 172.4 45.8 167.8 45.2 163.5C48.1 160.6 51.1 157.3 53.9 154.7C56.7 152.2 59.2 149.9 61.8 148.2C64.3 146.5 65.1 146 69.1 144.5C73.1 143 82.2 140.2 85.7 139.1C89.2 138.1 88.7 138.5 90.2 138.2L91.5 138.9L96.5 137.3L98.7 138.1C99.9 137.7 99.6 137.2 102.2 137Z"/>
  <path fill="#FAF6EC" fill-rule="evenodd" d="M122.2 159C126.6 158.5 130.9 158.6 134.6 158.8C138.3 159 136.4 158.3 144.4 160.1C152.4 162 173.9 168.4 182.5 170C191.1 171.5 191.4 169.5 195.9 169.3C194.3 170.7 193.6 172.2 191 173.5C188.4 174.8 183 176.6 180.3 177.1C177.6 177.6 178.4 177.7 174.9 176.6C171.4 175.5 163.6 171.9 159.2 170.5C154.8 169.2 153 168.7 148.5 168.6C143.9 168.6 136.7 169.1 131.9 170.2C127.1 171.3 122.8 173.8 119.8 175.4C116.7 177.1 115.5 178.4 113.5 180.3C111.5 182.2 109.6 184.5 108 186.8C106.4 189 104.8 191.9 104 193.9C103.2 196 103.5 197.2 103.2 198.8C108 194.8 113 189.7 117.5 186.7C122.1 183.7 126.5 182.1 130.5 180.8C134.6 179.6 138 179.7 141.7 179.1L141.9 180C140.2 181.8 138.2 183.5 136.8 185.3C135.4 187.1 134.5 188.5 133.6 190.8C132.6 193.1 131.6 196.9 131.2 199.3C130.8 201.7 130.6 202.2 131.2 205.1C131.8 208.1 132.8 213.1 134.9 216.8C136.9 220.5 140.6 223.7 143.5 227.1C142.7 227.3 142.8 227.9 141.3 227.8C139.8 227.6 138.2 227.7 134.6 226.3C130.9 225 123.5 222 119.3 219.6C115.1 217.2 111.9 214.3 109.5 212.1C107 209.9 106.2 208.4 104.5 206.5C104.3 208.7 103.6 210.5 103.9 213.2C104.2 215.9 105.6 219.5 106.4 222.6L105.4 223.7C101.3 221.1 96.8 218.9 93.2 215.9C89.5 212.9 85.9 209.1 83.4 205.6C80.8 202.1 79 198.6 78 194.8C76.9 191 77.4 186.8 77.1 182.7C79.8 179.7 82.4 176.1 85.3 173.6C88.1 171 90.4 169.4 94.2 167.4C98 165.4 103.5 163 108.1 161.6C112.8 160.2 117.8 159.5 122.2 159Z"/>
</svg>
