<svg xmlns="http://www.w3.org/2000/svg" viewBox="2 8 227 227" role="img" aria-label="BuilderFox favicon">
  <title>BuilderFox</title>
  <!-- BuilderFox mark tuned for 16-32px: same composition (fox profile in a
       crescent arc, crimson ring), with small-size simplifications - the
       jaw-crease sliver and cheek slit dropped, arc band thickened (inner
       r 78), eye cutout and ring enlarged. -->
  <path fill="#79A84B" fill-rule="evenodd" d="
    M 156.5 17.3
    L 156.4 80.5
    L 169.7 89.7
    C 175.6 100.5 178.2 105 183.7 110.8
    C 189.8 116.2 202 122.3 213 125.3
    L 219.2 142
    L 199.9 153.2
    L 160.7 153.3
    C 151 153.9 143.5 157.7 138.7 160.5
    C 132.1 163.9 127.6 168.8 123.2 174.6
    C 119.9 180.2 117.8 184.7 116.4 189.2
    L 84 178
    C 84 165 87.5 149 94.9 133.2
    Q 75.1 144.1 65 156.5
    C 64.1 152.4 65.2 138 68.5 127.1
    C 70.5 118.5 77.6 106.3 85 95.6
    C 90.1 90 96.1 86 103.2 79.8
    C 122 58.5 141.6 34.4 156.5 17.3
    Z
    M 131.9 103.9
    C 138.1 100.4 166.3 104.3 179.3 121.1
    C 161.2 122.9 137.9 125.9 131.9 103.9
    Z"/>
  <path fill="#4E7A2E" d="
    M 54.6 87.3
    A 78 78 0 0 0 88.1 190.3
    C 87 186 84.5 181.5 84 178
    L 116.4 189.2
    C 114.4 195.8 113.5 207.5 116.5 221.5
    L 122.3 233.8
    Q 105.9 233.2 89.7 227.5
    A 112.06 112.06 0 0 1 32.4 57
    Z"/>
  <path fill="#79A84B" d="
    M 122.8 8.6
    A 112.06 112.06 0 0 0 67.5 24.4
    A 112.06 112.06 0 0 0 17.2 153.7
    C 24 142 32 126 47.3 112.2
    A 78 78 0 0 1 114.8 44
    L 122.6 41.5
    Z"/>
  <path fill="#C9304C" fill-rule="evenodd" d="
    M 181 202.5 A 28.5 28.5 0 1 1 124 202.5 A 28.5 28.5 0 1 1 181 202.5 Z
    M 164.8 202.5 A 12.3 12.3 0 1 1 140.2 202.5 A 12.3 12.3 0 1 1 164.8 202.5 Z"/>
</svg>
