<svg xmlns="http://www.w3.org/2000/svg" viewBox="0 0 240 240" role="img" aria-label="BuilderFox mark, one-color variant: a fox head in profile inside a sweeping crescent arc with a ring below the jaw">
  <title>BuilderFox mark (one-color)</title>
  <!-- One-color variant of the BuilderFox mark: identical geometry in ink
       #23271E. The two green planes merge into one; the ring is ink too; the
       eye stays a true negative-space cutout. -->
  <path fill="#23271E" fill-rule="evenodd" d="
    M 156.5 17.3
    L 156.4 80.5
    L 169.7 89.7
    C 171.4 91.8 172.1 93.4 172.5 95.6
    C 175.6 100.5 178.2 105 183.7 110.8
    C 189.8 116.2 202 122.3 213 125.3
    L 214.5 135.3
    L 219.2 142
    L 199.9 153.2
    Q 180.5 154.15 160.7 153.3
    C 151 153.9 143.5 157.7 138.7 160.5
    C 132.1 163.9 127.6 168.8 123.2 174.6
    C 119.9 180.2 117.8 184.7 116.4 189.2
    L 89.3 181.4
    L 83.8 176.3
    L 82.7 170.8
    C 83.3 162 84.6 157.5 85.5 154
    C 88.3 148 91.4 142.2 94.9 133.2
    Q 75.1 144.1 65 156.5
    C 64.1 152.4 65.2 138 68.5 127.1
    C 69.6 121 71.1 115.5 74.4 111.3
    C 77.6 106.3 80.6 100.5 85 95.6
    C 90.1 90 96.1 86 103.2 79.8
    C 122 58.5 141.6 34.4 156.5 17.3
    Z
    M 137.9 106.1
    C 142.5 103.5 163.4 106.4 173 118.9
    C 159.6 120.2 142.3 122.4 137.9 106.1
    Z"/>
  <path fill="#23271E" d="
    M 49.3 84.7
    A 83.88 83.88 0 0 0 85.3 195.4
    C 84.9 191 83.4 182 82.9 172.5
    C 86 171.5 94 165 105.5 154.7
    C 112 150.4 118.5 146.6 124.5 143.8
    C 128.5 142 131.6 141.4 133.6 141.6
    C 131.8 145.4 128.2 148.6 123.2 152.4
    C 115.2 158.4 106.5 164.6 99 170.6
    C 94 174.9 90.1 179.3 89.3 181.4
    L 116.4 189.2
    C 114.4 195.8 113.5 207.5 116.5 221.5
    L 119.6 229.6
    L 122.3 233.8
    Q 105.9 233.2 89.7 227.5
    A 112.06 112.06 0 0 1 32.4 57
    Z"/>
  <path fill="#23271E" d="
    M 122.8 8.6
    A 112.06 112.06 0 0 0 67.5 24.4
    A 112.06 112.06 0 0 0 17.2 153.7
    C 23.6 142.8 30 127 41.5 111.5
    A 83.88 83.88 0 0 1 114 38.2
    L 122.4 35.8
    Z"/>
  <path fill="#23271E" fill-rule="evenodd" d="
    M 179.15 203.95 A 25.1 25.1 0 1 1 128.95 203.95 A 25.1 25.1 0 1 1 179.15 203.95 Z
    M 164.85 203.95 A 10.8 10.8 0 1 1 143.25 203.95 A 10.8 10.8 0 1 1 164.85 203.95 Z"/>
</svg>
