<svg xmlns="http://www.w3.org/2000/svg" viewBox="24.5 20 656 208" role="img" aria-label="BuilderFox logo and wordmark">
  <title>BuilderFox</title>
  <!-- Brand tokens: fox-green #79A84B | crimson #C9304C | ink #23271E | moss #4E7A2E -->
  <!-- The mark: fox head in profile wearing a crimson hard hat (swept crown,
       cream highlight facets), cream + sage chest tufts, negative-space eye.
       Bbox 17,7 203.5x220.8, centre (118.75,117.41). Scaled 0.84 about its
       bbox centre and set at (124,124) to optically match the lettering's
       mass (mark extents x 38.5-209.5, y 31.3-216.7). -->
  <g transform="translate(124 124) scale(0.84) translate(-118.75 -117.41)">
    <path fill="#A12A3E" fill-rule="evenodd" d="M137.5 92.7C144.5 92.3 147.1 92.2 152.9 92.5C158.8 92.7 166.1 93.4 172.7 93.9L175.6 97.6L175.6 102.5L174 104.4C168.3 103.6 163.2 102.4 157 101.9C150.7 101.3 144.6 100.8 136.4 101C128.1 101.1 115.1 102 107.7 102.8C100.2 103.5 97.2 104.2 91.5 105.4C85.9 106.7 79.4 108.2 73.6 110C67.8 111.8 62 113.9 56.6 116.3C51.1 118.7 46.1 121.7 40.9 124.3L39 123.1C40.6 121.3 41.6 119.5 43.9 117.8C46.1 116 48.7 114.7 52.6 112.7C56.4 110.8 62.2 107.9 66.9 106C71.6 104.1 73.5 102.9 80.8 101.1C88.1 99.2 101.4 96.1 110.8 94.7C120.3 93.3 130.5 93 137.5 92.7Z"/>
    <path fill="#79A84B" fill-rule="evenodd" d="M24.5 28.6C26.3 28.5 26.4 28.1 28.8 28.4C31.2 28.6 34.7 29.2 38.7 30.2C42.6 31.2 47.9 32.8 52.6 34.3C57.2 35.8 61.4 37.3 66.4 39.3C71.4 41.3 79.3 44.7 82.6 46.5C85.9 48.3 85 48.9 86.2 50.1C85.7 50.5 85.8 49.4 84.7 51.4C83.5 53.5 81 58.6 79.1 62.2L78.1 62.8C72.1 58.7 65.1 53.3 60.2 50.4C55.2 47.5 50.8 46.3 48.5 45.2C46.3 44.1 49.3 44.7 46.7 43.7C44.2 42.7 36.1 40 33.3 39.2C30.5 38.4 31.1 39 30 38.9C29.8 39.5 29.2 38.8 29.5 40.7C29.7 42.5 30.5 47 31.4 50.1C32.4 53.2 34.5 57.7 35.1 59.5C35.7 61.3 35 60.4 34.9 60.8L37 64L36.7 65.3C37.3 66.5 37.8 67.8 38.5 68.9C39.2 70 39.7 69.8 41 72C42.4 74.3 45 79.7 46.6 82.4C48.2 85 49.4 86.4 50.6 87.7C51.9 89.1 52.8 89.6 53.9 90.6C57.5 88.6 62.4 85.6 64.7 84.6C66.9 83.5 66.4 84.5 67.3 84.4L66.3 88.6L70.9 94.9L66.4 97.6C66 97.6 67.8 96.3 65.1 97.5C62.4 98.8 53.4 103.5 50.3 104.9C47.2 106.3 47.8 105.2 46.3 106.1C44.8 106.9 43.7 108.4 41.3 109.8C39 111.3 33.8 113.6 31.9 114.9C30.1 116.2 30.7 116.7 30.1 117.5L28.8 117.6L24.3 121.5L23.3 120.4C23.6 118.5 23.1 118.5 24.3 114.6C25.4 110.7 28.2 102.8 30.1 96.9L31 96.6C33.4 98.4 36.3 101 38.2 102.2C40.1 103.4 40.9 103.3 42.2 103.9L42.9 103C42.9 102.5 43.5 102.7 42.7 101.6C42 100.5 40 98.5 38.5 96.2C37.1 94 35.9 91.8 34 88.2C32.2 84.6 29.6 80 27.4 74.7C25.3 69.4 22.2 60 21.1 56.4C20.1 52.8 21.5 54.6 21.2 53.2C20.9 51.9 19.6 49.6 19.3 48.3C19.1 47 19.5 46.5 19.5 45.6C19.1 45 18.8 45.9 18.4 43.8C17.9 41.7 17.1 35.5 17 33.1C17 30.6 17.7 30.3 18 28.9C20.2 28.8 22.8 28.7 24.5 28.6ZM130.3 100.3C138.5 100.1 149.8 100.4 157 101C164.2 101.5 168 102.7 173.5 103.6L175.3 102.3C176.1 103.4 177.2 104.2 177.7 105.7C178.3 107.1 178.2 109.3 178.8 111C179.3 112.8 179.7 114 181 116C182.3 118 184.6 121.2 186.4 123.1C188.2 125.1 189.4 126.2 191.9 127.8C194.4 129.3 198.2 130.9 201.3 132.4L203.5 136.3L200.3 143.3L201.4 146.9C200.9 147.4 201.6 147.7 200 148.4C198.3 149.1 193.6 150.7 191.5 151.1C189.4 151.5 188.8 150.9 187.4 150.9L186.1 152C183.7 151.7 180.7 151.1 178.9 151.1C177.1 151.1 176.5 151.7 175.3 152L172.2 150.8L170.9 151.4L169.5 150.3C168.8 150.4 168.4 150.8 167.3 150.6C166.2 150.4 164.7 149.5 162.8 149.1C160.9 148.7 157.6 148.7 156.1 148.4C154.6 148.1 155.6 147.6 153.8 147.2C152 146.7 147 146.1 145.3 145.7C143.6 145.2 144.1 144.9 143.5 144.5L142.2 145.1C140.1 144.3 138.9 143.4 135.9 142.7C132.9 142.1 126.4 141.6 124.3 141.2C122.1 140.8 123.7 140.6 122.9 140.4C122.2 140.2 120.7 140 119.8 140C118.9 140.1 118.3 140.5 117.5 140.8L116.2 139.7C115 139.6 114.9 139.5 112.6 139.5C110.3 139.5 104.7 139.5 102.3 139.7C99.9 139.9 99.6 140.4 98.3 140.8L96.5 139.9L91.5 141.5L90.2 140.9C86.5 141.8 82.5 142.6 79 143.6C75.5 144.7 72.3 145.8 69.1 147.2C66 148.6 63.2 150.3 60.2 151.9L58.7 151.4L61.4 149.1C60.5 149.1 61 148.2 58.8 149.1C56.6 150 50.8 152.9 48.1 154.4C45.4 155.8 45.1 156.2 42.7 157.9C40.3 159.7 36.8 162.1 33.7 165C30.7 168 27.5 172.2 24.3 175.8L22.8 175.1C23 171.7 22.6 169.2 23.3 164.8C24 160.4 25.5 153.5 27 148.7C28.5 143.8 30.2 139.7 32.2 135.7C34.3 131.6 35.1 127.7 39.1 124.3C43.2 120.9 49.8 118.2 56.6 115.4C63.4 112.5 71.4 109.6 79.9 107.3C88.4 105.1 99.3 103 107.7 101.9C116.1 100.7 122.1 100.4 130.3 100.3ZM123.4 106.9C121 106.9 120.7 107.1 119.8 107.4C118.8 107.7 118.4 108.3 117.8 108.8C119.9 110.1 122.6 110.9 124.3 112.6C125.9 114.3 126.2 117.4 127.4 118.9C128.6 120.3 130.2 120.8 131.4 121.5C132.6 122.1 133.1 122.5 134.6 122.7C136.1 123 138.7 123 140.4 122.9C142.1 122.8 143.6 122.6 144.9 122.3C146.1 121.9 146.6 121 148 120.9C149.4 120.7 151.6 121.3 153.4 121.5L154.4 120.9C153.9 119.9 153.7 119 152.9 118C152.2 117 152.2 116.7 150 115.1C147.8 113.5 143 110.6 139.5 108.3C138.7 108.3 138.2 108.6 137.2 108.4C136.3 108.1 136 107.1 133.7 106.9C131.3 106.6 125.7 106.8 123.4 106.9Z"/>
    <path fill="#C9304C" fill-rule="evenodd" d="M80 77C90.5 58.5 105 44.5 123 34.5C131.5 29.8 140.5 26.3 149.5 25C153.5 28 157 31.6 159.8 35.8C156.8 36 155 36.3 153.3 36.7C160.6 46.5 169.3 56.2 174.5 66.5C175.5 68.8 176 70.5 176 72C150 71.5 112 73.5 80 77ZM64.4 88.2L68.2 82.6C85 78.6 105 75.8 125 74.6C145 73.6 165 74.6 182 78C192 80.2 203 85.5 211.5 91.5C196.8 89.1 179.5 85.6 167.3 84.4C155 83.1 146 83.8 138.1 83.9C130.3 84.1 128 84.4 120.2 85.3C112.5 86.2 99.4 87.2 91.5 88.3C84 89.4 77.5 92 73.6 92.9C70.8 93.5 70.6 93.2 69.8 93.2L64.4 88.2ZM78 70C87 60.5 96 50.5 108 40.9C117 34.3 130 27.4 146 22.5L143 15.6C130 18.8 117 24.4 104.5 32.8C93.5 40.6 84.5 52 78 70ZM82 54C89 43 98 33.5 109 26.8C119 21 132 16 150 12.8L146.5 7C132 9 119 12.6 108 18C97 23.5 88.5 35.5 82 54ZM86 28C93 21 101 15.5 111 11.5C103 17.5 94 23.5 86 28Z"/>
    <path fill="#FAF6EC" fill-rule="evenodd" d="M102.2 137C104.8 136.8 111.8 136.6 114.4 136.8C116.9 137 116.5 137.6 117.5 138.1C118.4 137.8 118.2 137.1 120.2 137.3C122.2 137.6 127.7 139.1 129.6 139.4C131.6 139.7 130.2 138.9 131.9 139.1C133.5 139.4 137.8 140.4 139.5 140.9C141.2 141.5 141.3 141.9 142.2 142.4L143.5 141.8C144.1 142.2 143.6 142.5 145.3 143C147 143.4 152 144.1 153.8 144.5C155.6 145 154.6 145.4 156.1 145.7C157.6 146 160.9 146 162.8 146.4C164.7 146.8 166.2 147.7 167.3 147.9C168.4 148.1 168.8 147.7 169.5 147.6L170.9 148.7L172.2 148.1L175.3 149.3C176.5 149 177.1 148.5 178.9 148.5C180.7 148.5 183.7 149 186.1 149.3L187.4 148.2C188.8 148.3 189.3 148.8 191.5 148.4C193.6 147.9 197.4 146.5 200.4 145.6C201.7 147.9 202.8 150.7 204.3 152.7C205.8 154.7 207.8 155.9 209.5 157.5C205.9 159.1 202.1 161.1 198.6 162.3C195.2 163.5 191.7 164.2 188.8 164.6C185.9 165 183.6 164.8 181.2 164.6C178.7 164.4 177.5 164.4 174 163.2C170.5 161.9 164.7 159.2 160.1 157.2C161.4 158.8 162.5 160.3 164.1 161.9C165.8 163.5 168.2 165 170.2 166.6L168.6 169C162.2 167.2 154.3 164.9 149.3 163.8C144.4 162.6 143.4 162.3 139 161.9C134.6 161.5 127.2 161.3 122.9 161.5C118.6 161.6 116.4 162.1 113.1 162.9C109.7 163.6 105.9 164.8 102.7 166C99.6 167.2 97.1 168.4 94.2 170C91.4 171.7 88.1 173.9 85.5 176C82.9 178.1 80.9 180.5 78.5 182.8L77.6 181.8C77.7 180.9 77.4 180.8 78 179.2C78.5 177.5 79.9 174.4 80.9 172L80.3 171.4C78.3 173.5 76.1 175.4 74.4 177.8C72.6 180.2 71 183.2 69.9 185.9C68.7 188.6 68 190.7 67.6 193.9C67.2 197.2 67.5 201.7 67.5 205.6L66.9 206.1C63.9 203 60.4 199.8 57.9 196.8C55.4 193.8 53.8 191.5 52 188.1C50.1 184.7 48.1 180.6 47 176.5C45.9 172.4 45.8 167.8 45.2 163.5C48.1 160.6 51.1 157.3 53.9 154.7C56.7 152.2 59.2 149.9 61.8 148.2C64.3 146.5 65.1 146 69.1 144.5C73.1 143 82.2 140.2 85.7 139.1C89.2 138.1 88.7 138.5 90.2 138.2L91.5 138.9L96.5 137.3L98.7 138.1C99.9 137.7 99.6 137.2 102.2 137Z"/>
    <path fill="#FAF6EC" fill-rule="evenodd" d="M163 38C176 45.5 186.5 53 191.5 62C193 67.5 192.7 73 190 78C181.5 65.5 173.5 53 168.5 46C166.5 43 164.2 40.5 163 38ZM150 75.2C168 74.4 184 77 196 82C203 85.5 208 88.8 211.5 91.5C204 87.5 196 84.5 188 82.4C176 79.3 162 77.6 150 75.2ZM100 41.5C112 33.8 124 28 137 24.2C125 31.4 112 37.6 100 41.5ZM105 26C116 19.8 128 15.4 140 12.6C129 18.6 117 23.4 105 26Z"/>
    <path fill="#FAF6EC" fill-rule="evenodd" d="M24.6 28.1C26.6 28.1 27.2 27.6 30.6 27.9C34 28.3 38.8 28.7 44.9 30.3C51.1 31.8 60.6 34.7 67.3 37.4C74.1 40.1 78.8 42.3 85.3 46.4L84.5 49.5C79 46.8 75.5 45.6 69.6 43.3C63.7 40.9 57.3 38.3 49.9 36.1C42.4 33.9 33.1 32 24.8 30L23.9 29L24.6 28.1Z"/>
    <path fill="#FAF6EC" fill-rule="evenodd" d="M175.7 101.6C178.1 105.7 180.3 110.3 182.8 113.7C185.3 117.2 187.7 119.7 190.8 122.2C193.9 124.8 196.4 126.6 201.3 129.1C206.3 131.6 214.1 134.6 220.5 137.3C219.5 137.6 220.3 138.3 217.5 138.1C214.6 138 208.2 137.9 203.6 136.3C199 134.7 193.4 130.9 189.9 128.5C186.5 126.1 184.5 123.7 182.7 121.8C181 119.9 180.5 119.3 179.2 116.9C178 114.4 176 109.3 175.2 107C174.4 104.7 174.8 104.3 174.7 103L175.7 101.6Z"/>
    <path fill="#D8DCC4" fill-rule="evenodd" d="M122.2 159C126.6 158.5 130.9 158.6 134.6 158.8C138.3 159 136.4 158.3 144.4 160.1C152.4 162 173.9 168.4 182.5 170C191.1 171.5 191.4 169.5 195.9 169.3C194.3 170.7 193.6 172.2 191 173.5C188.4 174.8 183 176.6 180.3 177.1C177.6 177.6 178.4 177.7 174.9 176.6C171.4 175.5 163.6 171.9 159.2 170.5C154.8 169.2 153 168.7 148.5 168.6C143.9 168.6 136.7 169.1 131.9 170.2C127.1 171.3 122.8 173.8 119.8 175.4C116.7 177.1 115.5 178.4 113.5 180.3C111.5 182.2 109.6 184.5 108 186.8C106.4 189 104.8 191.9 104 193.9C103.2 196 103.5 197.2 103.2 198.8C108 194.8 113 189.7 117.5 186.7C122.1 183.7 126.5 182.1 130.5 180.8C134.6 179.6 138 179.7 141.7 179.1L141.9 180C140.2 181.8 138.2 183.5 136.8 185.3C135.4 187.1 134.5 188.5 133.6 190.8C132.6 193.1 131.6 196.9 131.2 199.3C130.8 201.7 130.6 202.2 131.2 205.1C131.8 208.1 132.8 213.1 134.9 216.8C136.9 220.5 140.6 223.7 143.5 227.1C142.7 227.3 142.8 227.9 141.3 227.8C139.8 227.6 138.2 227.7 134.6 226.3C130.9 225 123.5 222 119.3 219.6C115.1 217.2 111.9 214.3 109.5 212.1C107 209.9 106.2 208.4 104.5 206.5C104.3 208.7 103.6 210.5 103.9 213.2C104.2 215.9 105.6 219.5 106.4 222.6L105.4 223.7C101.3 221.1 96.8 218.9 93.2 215.9C89.5 212.9 85.9 209.1 83.4 205.6C80.8 202.1 79 198.6 78 194.8C76.9 191 77.4 186.8 77.1 182.7C79.8 179.7 82.4 176.1 85.3 173.6C88.1 171 90.4 169.4 94.2 167.4C98 165.4 103.5 163 108.1 161.6C112.8 160.2 117.8 159.5 122.2 159Z"/>
  </g>
  <!-- "BuilderFox" set in Bricolage Grotesque 800 (opsz 92), outlined to paths so the
       wordmark renders identically with no font installed or loaded. -->
  <!-- Dark-ground variant: letter fills only - "Builder" cream #FAF6EC,
       "Fox" lime #C8FF4F. The mark above is untouched. -->
  <g aria-hidden="true">
    <path fill="#FAF6EC" d="M251.77 152V91.28H276.34Q281.95 91.28 286.36 92.29Q290.78 93.3 293.86 95.28Q296.94 97.26 298.55 100.2Q300.16 103.15 300.16 107.1Q300.16 110.78 298.65 113.73Q297.13 116.67 293.77 118.47Q290.41 120.26 284.98 120.72V121.55Q294.28 122.01 298.46 125.87Q302.65 129.74 302.65 136.08Q302.65 141.42 299.89 144.92Q297.13 148.41 291.79 150.21Q286.46 152 278.64 152ZM266.68 140.04H277.99Q282.78 140.04 285.35 138.34Q287.93 136.64 287.93 133.51Q287.93 130.01 285.03 128.31Q282.13 126.61 276.24 126.61H266.68ZM266.68 116.49H274.77Q280.11 116.49 282.87 114.74Q285.63 112.99 285.63 109.59Q285.63 106.37 283.14 104.76Q280.66 103.15 275.6 103.15H266.68Z M321.09 153.29Q313.18 153.29 309.31 147.77Q305.45 142.25 305.45 130.75V103.42H320.35V130.47Q320.35 135.9 321.92 138.11Q323.48 140.32 326.33 140.32Q328.45 140.32 330.15 139.21Q331.85 138.11 333.14 135.95Q334.43 133.78 335.12 130.43Q335.81 127.07 335.81 122.28V103.42H350.62V130.2V152H338.02V133.23H337.28Q336.73 140.22 334.8 144.64Q332.86 149.06 329.46 151.17Q326.06 153.29 321.09 153.29Z M355.72 152V103.42H370.62V152ZM363.08 99.74Q358.85 99.74 356.59 97.95Q354.34 96.16 354.34 92.75Q354.34 89.26 356.59 87.46Q358.85 85.67 363.08 85.67Q367.4 85.67 369.66 87.51Q371.91 89.35 371.91 92.75Q371.91 96.06 369.66 97.9Q367.4 99.74 363.08 99.74Z M375.72 152V87.51H390.63V152Z M412.93 153.29Q407.6 153.29 403.41 150.44Q399.22 147.58 396.79 141.79Q394.35 135.99 394.35 127.16Q394.35 118.88 396.56 113.31Q398.76 107.75 402.81 104.94Q406.86 102.14 412.29 102.14Q416.61 102.14 419.88 103.88Q423.14 105.63 425.26 109.4Q427.38 113.18 428.2 119.16H429.12Q428.57 116.03 428.11 112.99Q427.65 109.96 427.42 107.15Q427.19 104.34 427.19 101.86V87.51H442.1V134.52V152H429.22V137H428.48Q427.47 142.34 425.4 145.97Q423.33 149.61 420.25 151.45Q417.16 153.29 412.93 153.29ZM418.18 141.42Q419.92 141.42 421.63 140.59Q423.33 139.76 424.57 138.11Q425.81 136.45 426.59 133.97Q427.38 131.48 427.38 128.17V127.53Q427.38 124.77 426.82 122.65Q426.27 120.54 425.35 118.97Q424.43 117.41 423.24 116.44Q422.04 115.48 420.71 115.02Q419.37 114.56 417.99 114.56Q415.14 114.56 413.21 116.44Q411.28 118.33 410.36 121.41Q409.44 124.49 409.44 128.17Q409.44 131.76 410.45 134.8Q411.46 137.83 413.39 139.63Q415.32 141.42 418.18 141.42Z M470.29 153.29Q463.48 153.29 458.83 151.31Q454.19 149.33 451.29 145.93Q448.39 142.52 447.1 138.11Q445.82 133.69 445.82 128.72Q445.82 123.48 447.2 118.7Q448.58 113.91 451.38 110.19Q454.19 106.46 458.65 104.3Q463.11 102.14 469.37 102.14Q475.62 102.14 480.09 104.3Q484.55 106.46 487.22 110.32Q489.88 114.19 490.71 119.25Q491.54 124.31 490.53 130.2L455.2 130.75V122.65L479.3 122.19L477.19 126.88Q477.74 122.65 477.05 119.75Q476.36 116.86 474.47 115.34Q472.59 113.82 469.37 113.82Q465.96 113.82 463.94 115.57Q461.92 117.32 461.04 120.49Q460.17 123.66 460.17 127.99Q460.17 135.44 462.7 138.84Q465.23 142.25 470.38 142.25Q472.59 142.25 474.11 141.7Q475.62 141.14 476.54 140.09Q477.46 139.03 477.83 137.51Q478.2 135.99 478.11 134.15L491.72 134.98Q491.91 138.02 490.99 141.24Q490.07 144.46 487.68 147.17Q485.28 149.88 481.05 151.59Q476.82 153.29 470.29 153.29Z M495.17 152V125.78V103.42H508.05V122.56H508.88Q509.43 114.92 511.04 110.51Q512.65 106.09 515.13 104.21Q517.62 102.32 520.74 102.32Q522.31 102.32 524.06 102.78Q525.8 103.24 527.55 104.16L526.82 120.72Q524.88 119.52 522.95 118.93Q521.02 118.33 519.27 118.33Q516.33 118.33 514.26 119.98Q512.19 121.64 511.13 124.86Q510.07 128.08 509.98 132.68V152Z"/>
    <path fill="#C8FF4F" d="M530.72 152V91.28H545.62V152ZM538.17 130.38V118.24H569.36V130.38ZM538.17 103.7V91.28H572.49V103.7Z M596.63 153.29Q589.64 153.29 584.21 150.48Q578.78 147.68 575.7 142.02Q572.62 136.36 572.62 127.8Q572.62 118.88 575.84 113.22Q579.06 107.56 584.53 104.85Q590.01 102.14 596.91 102.14Q604.08 102.14 609.47 104.94Q614.85 107.75 617.88 113.41Q620.92 119.06 620.92 127.71Q620.92 136.64 617.75 142.29Q614.57 147.95 609.05 150.62Q603.53 153.29 596.63 153.29ZM597 142.34Q599.85 142.34 601.83 140.73Q603.81 139.12 604.82 135.99Q605.83 132.86 605.83 128.54Q605.83 123.76 604.73 120.49Q603.62 117.22 601.51 115.48Q599.39 113.73 596.45 113.73Q593.69 113.73 591.71 115.34Q589.73 116.95 588.72 120.08Q587.71 123.2 587.71 127.62Q587.71 134.61 590.19 138.48Q592.68 142.34 597 142.34Z M617 152 632.37 127.62 617.19 103.42H634.48L641.66 119.25H642.12L649.11 103.42H666.22L651.5 127.62L666.41 152H648.84L642.03 136.45H641.66L634.12 152Z"/>
  </g>
</svg>
