<svg xmlns="http://www.w3.org/2000/svg" viewBox="14 18 666 212" role="img" aria-label="BuilderFox logo and wordmark">
  <title>BuilderFox</title>
  <!-- Brand tokens: fox-green #79A84B | crimson #C9304C | ink #23271E | moss #4E7A2E -->
  <!-- The den mark: green pebble with the fox carved as negative space; crimson
       shows only through the tail-tip cutout. Scaled 1.06 about its centre
       (120,124) to optically match the lettering's cap height. -->
  <g transform="translate(120 124) scale(1.06) translate(-120 -124)">
    <circle cx="180" cy="158.5" r="14" fill="#C9304C"/>
    <path fill="#79A84B" fill-rule="evenodd" d="
      M 120,36
      C 168.6,36 208,75.4 208,124
      C 208,172.6 168.6,212 120,212
      C 71.4,212 32,172.6 32,124
      C 32,75.4 71.4,36 120,36
      Z
      M 133.5,47
      C 136.5,60 142.5,74 151.5,86
      C 146.8,90 144.8,95.4 146.9,99.4
      C 147.4,100.9 148.8,101.9 150.8,102.2
      C 162.5,103.9 178.5,109 194.5,116
      C 197.5,118 196.5,123 191.5,125
      L 165.5,125.9
      C 163,126.1 161.2,127.2 159.7,129.1
      C 155.7,134 151.3,138.6 147.5,143
      C 133.5,141 119.5,134 113.5,120
      C 108.5,105 110.5,89 119.5,78
      C 122.5,67.5 126.5,56.5 133.5,47
      Z
      M 146,106
      C 150,102.5 156,103.5 160,110.5
      C 156,112.5 149,111 146,106
      Z
      M 50.46,152.10
      A 75,75 0 0 0 186.83,158.05
      C 190.9,150.05 186.8,146.9 180.8,146.6
      C 175.2,147.3 175.3,159.8 171.7,163.7
      A 66,66 0 0 1 92.0,174.2
      C 81.6,168.2 62,154.5 50.46,152.10
      Z
    "/>
  </g>
  <!-- "BuilderFox" set in Bricolage Grotesque 800 (opsz 92), outlined to paths so the
       wordmark renders identically with no font installed or loaded. -->
  <g aria-hidden="true">
    <path fill="#23271E" d="M251.77 152V91.28H276.34Q281.95 91.28 286.36 92.29Q290.78 93.3 293.86 95.28Q296.94 97.26 298.55 100.2Q300.16 103.15 300.16 107.1Q300.16 110.78 298.65 113.73Q297.13 116.67 293.77 118.47Q290.41 120.26 284.98 120.72V121.55Q294.28 122.01 298.46 125.87Q302.65 129.74 302.65 136.08Q302.65 141.42 299.89 144.92Q297.13 148.41 291.79 150.21Q286.46 152 278.64 152ZM266.68 140.04H277.99Q282.78 140.04 285.35 138.34Q287.93 136.64 287.93 133.51Q287.93 130.01 285.03 128.31Q282.13 126.61 276.24 126.61H266.68ZM266.68 116.49H274.77Q280.11 116.49 282.87 114.74Q285.63 112.99 285.63 109.59Q285.63 106.37 283.14 104.76Q280.66 103.15 275.6 103.15H266.68Z M321.09 153.29Q313.18 153.29 309.31 147.77Q305.45 142.25 305.45 130.75V103.42H320.35V130.47Q320.35 135.9 321.92 138.11Q323.48 140.32 326.33 140.32Q328.45 140.32 330.15 139.21Q331.85 138.11 333.14 135.95Q334.43 133.78 335.12 130.43Q335.81 127.07 335.81 122.28V103.42H350.62V130.2V152H338.02V133.23H337.28Q336.73 140.22 334.8 144.64Q332.86 149.06 329.46 151.17Q326.06 153.29 321.09 153.29Z M355.72 152V103.42H370.62V152ZM363.08 99.74Q358.85 99.74 356.59 97.95Q354.34 96.16 354.34 92.75Q354.34 89.26 356.59 87.46Q358.85 85.67 363.08 85.67Q367.4 85.67 369.66 87.51Q371.91 89.35 371.91 92.75Q371.91 96.06 369.66 97.9Q367.4 99.74 363.08 99.74Z M375.72 152V87.51H390.63V152Z M412.93 153.29Q407.6 153.29 403.41 150.44Q399.22 147.58 396.79 141.79Q394.35 135.99 394.35 127.16Q394.35 118.88 396.56 113.31Q398.76 107.75 402.81 104.94Q406.86 102.14 412.29 102.14Q416.61 102.14 419.88 103.88Q423.14 105.63 425.26 109.4Q427.38 113.18 428.2 119.16H429.12Q428.57 116.03 428.11 112.99Q427.65 109.96 427.42 107.15Q427.19 104.34 427.19 101.86V87.51H442.1V134.52V152H429.22V137H428.48Q427.47 142.34 425.4 145.97Q423.33 149.61 420.25 151.45Q417.16 153.29 412.93 153.29ZM418.18 141.42Q419.92 141.42 421.63 140.59Q423.33 139.76 424.57 138.11Q425.81 136.45 426.59 133.97Q427.38 131.48 427.38 128.17V127.53Q427.38 124.77 426.82 122.65Q426.27 120.54 425.35 118.97Q424.43 117.41 423.24 116.44Q422.04 115.48 420.71 115.02Q419.37 114.56 417.99 114.56Q415.14 114.56 413.21 116.44Q411.28 118.33 410.36 121.41Q409.44 124.49 409.44 128.17Q409.44 131.76 410.45 134.8Q411.46 137.83 413.39 139.63Q415.32 141.42 418.18 141.42Z M470.29 153.29Q463.48 153.29 458.83 151.31Q454.19 149.33 451.29 145.93Q448.39 142.52 447.1 138.11Q445.82 133.69 445.82 128.72Q445.82 123.48 447.2 118.7Q448.58 113.91 451.38 110.19Q454.19 106.46 458.65 104.3Q463.11 102.14 469.37 102.14Q475.62 102.14 480.09 104.3Q484.55 106.46 487.22 110.32Q489.88 114.19 490.71 119.25Q491.54 124.31 490.53 130.2L455.2 130.75V122.65L479.3 122.19L477.19 126.88Q477.74 122.65 477.05 119.75Q476.36 116.86 474.47 115.34Q472.59 113.82 469.37 113.82Q465.96 113.82 463.94 115.57Q461.92 117.32 461.04 120.49Q460.17 123.66 460.17 127.99Q460.17 135.44 462.7 138.84Q465.23 142.25 470.38 142.25Q472.59 142.25 474.11 141.7Q475.62 141.14 476.54 140.09Q477.46 139.03 477.83 137.51Q478.2 135.99 478.11 134.15L491.72 134.98Q491.91 138.02 490.99 141.24Q490.07 144.46 487.68 147.17Q485.28 149.88 481.05 151.59Q476.82 153.29 470.29 153.29Z M495.17 152V125.78V103.42H508.05V122.56H508.88Q509.43 114.92 511.04 110.51Q512.65 106.09 515.13 104.21Q517.62 102.32 520.74 102.32Q522.31 102.32 524.06 102.78Q525.8 103.24 527.55 104.16L526.82 120.72Q524.88 119.52 522.95 118.93Q521.02 118.33 519.27 118.33Q516.33 118.33 514.26 119.98Q512.19 121.64 511.13 124.86Q510.07 128.08 509.98 132.68V152Z"/>
    <path fill="#4E7A2E" d="M530.72 152V91.28H545.62V152ZM538.17 130.38V118.24H569.36V130.38ZM538.17 103.7V91.28H572.49V103.7Z M596.63 153.29Q589.64 153.29 584.21 150.48Q578.78 147.68 575.7 142.02Q572.62 136.36 572.62 127.8Q572.62 118.88 575.84 113.22Q579.06 107.56 584.53 104.85Q590.01 102.14 596.91 102.14Q604.08 102.14 609.47 104.94Q614.85 107.75 617.88 113.41Q620.92 119.06 620.92 127.71Q620.92 136.64 617.75 142.29Q614.57 147.95 609.05 150.62Q603.53 153.29 596.63 153.29ZM597 142.34Q599.85 142.34 601.83 140.73Q603.81 139.12 604.82 135.99Q605.83 132.86 605.83 128.54Q605.83 123.76 604.73 120.49Q603.62 117.22 601.51 115.48Q599.39 113.73 596.45 113.73Q593.69 113.73 591.71 115.34Q589.73 116.95 588.72 120.08Q587.71 123.2 587.71 127.62Q587.71 134.61 590.19 138.48Q592.68 142.34 597 142.34Z M617 152 632.37 127.62 617.19 103.42H634.48L641.66 119.25H642.12L649.11 103.42H666.22L651.5 127.62L666.41 152H648.84L642.03 136.45H641.66L634.12 152Z"/>
  </g>
</svg>
