<svg xmlns="http://www.w3.org/2000/svg" viewBox="0 0 240 240" role="img" aria-label="BuilderFox den mark, one-color variant">
  <title>BuilderFox den mark (one-color)</title>
  <!-- One-color variant of the den mark: identical carved geometry, ink token
       #23271E, with the crimson tail-tip reveal left as open negative space. -->
  <path fill="#23271E" fill-rule="evenodd" d="
    M 120,36
    C 168.6,36 208,75.4 208,124
    C 208,172.6 168.6,212 120,212
    C 71.4,212 32,172.6 32,124
    C 32,75.4 71.4,36 120,36
    Z
    M 133.5,47
    C 136.5,60 142.5,74 151.5,86
    C 146.8,90 144.8,95.4 146.9,99.4
    C 147.4,100.9 148.8,101.9 150.8,102.2
    C 162.5,103.9 178.5,109 194.5,116
    C 197.5,118 196.5,123 191.5,125
    L 165.5,125.9
    C 163,126.1 161.2,127.2 159.7,129.1
    C 155.7,134 151.3,138.6 147.5,143
    C 133.5,141 119.5,134 113.5,120
    C 108.5,105 110.5,89 119.5,78
    C 122.5,67.5 126.5,56.5 133.5,47
    Z
    M 146,106
    C 150,102.5 156,103.5 160,110.5
    C 156,112.5 149,111 146,106
    Z
    M 50.46,152.10
    A 75,75 0 0 0 186.83,158.05
    C 190.9,150.05 186.8,146.9 180.8,146.6
    C 175.2,147.3 175.3,159.8 171.7,163.7
    A 66,66 0 0 1 92.0,174.2
    C 81.6,168.2 62,154.5 50.46,152.10
    Z
  "/>
</svg>
